<?xml version="1.0" encoding="utf-8"?>
<!-- Generator: Adobe Illustrator 26.0.1, SVG Export Plug-In . SVG Version: 6.00 Build 0)  -->
<svg version="1.1" id="Layer_1" xmlns="http://www.w3.org/2000/svg" xmlns:xlink="http://www.w3.org/1999/xlink" x="0px" y="0px"
	 viewBox="0 0 1280 1000" style="enable-background:new 0 0 1280 1000;" xml:space="preserve">
<style type="text/css">
	.st0{fill:#BF0A30;}
	.st1{fill:#002868;}
</style>
<g>
	<g>
		<g>
			<path class="st0" d="M597.65,342.16h33.95c26.22,0,45.09,6.23,56.63,18.69c5.65,6.16,9.95,14.3,12.89,24.45
				c2.94,10.13,4.41,22.47,4.41,37.01c0,28.29-5.77,48.74-17.3,61.36c-11.54,12.6-30.41,18.91-56.63,18.91h-33.95V342.16z
				 M637.95,473.99c12.47,0,21.34-3.94,26.65-11.82s7.95-21.2,7.95-39.97c0-18.62-2.65-31.87-7.95-39.75
				c-5.23-7.81-14.11-11.72-26.65-11.72h-8.6v103.26H637.95z"/>
			<path class="st0" d="M781.6,505.69c-9.67,0-17.96-1.81-24.88-5.43c-6.91-3.61-12.62-8.79-17.13-15.53
				c-9.53-14.11-14.29-34.84-14.29-62.21c0-13.68,1.18-25.69,3.55-36.04c2.36-10.36,5.94-19.11,10.74-26.28
				c4.94-7.3,11-12.62,18.16-15.95c7.16-3.33,15.11-5,23.86-5c9.38,0,17.58,1.77,24.6,5.32c7.02,3.55,12.89,8.8,17.62,15.74
				c9.45,14.11,14.19,34.85,14.19,62.21c0,27.37-4.73,48.07-14.19,62.1c-4.58,6.81-10.36,12.02-17.35,15.63
				C799.49,503.87,791.2,505.69,781.6,505.69z M781.6,477.21c8.17,0,14.11-4.33,17.83-13c3.73-8.53,5.59-22.46,5.59-41.8
				c0-19.27-1.86-33.16-5.59-41.69c-3.73-8.67-9.67-13-17.83-13c-4.23,0-7.78,1.09-10.64,3.27s-5.23,5.42-7.09,9.72
				c-3.73,8.53-5.59,22.42-5.59,41.69c0,19.34,1.86,33.28,5.59,41.8C767.59,472.88,773.5,477.21,781.6,477.21z"/>
			<path class="st0" d="M929.44,505.69c-10.68,0-20.13-1.77-28.37-5.32s-15.22-8.9-20.95-16.07
				c-11.39-14.25-17.09-34.84-17.09-61.78c0-26.93,5.7-47.55,17.09-61.88c5.73-7.16,12.71-12.52,20.95-16.07s17.69-5.32,28.37-5.32
				c3.23,0,6.29,0.16,9.18,0.48c2.9,0.32,5.75,0.8,8.54,1.45c5.66,1.29,10.89,3.22,15.69,5.8v35.24c-3.22-3-6.11-5.35-8.65-7.03
				s-4.96-3.03-7.25-4.03c-2.72-1.22-5.39-2.1-8-2.63c-2.62-0.54-5.25-0.8-7.9-0.8c-11.46,0-20.16,4.58-26.1,13.75
				c-5.95,9.31-8.92,22.99-8.92,41.04c0,18.05,2.97,31.67,8.92,40.83c5.87,9.24,14.57,13.86,26.1,13.86
				c5.51,0,10.86-1.18,16.01-3.55c2.51-1.15,5-2.56,7.47-4.24c2.47-1.68,5.25-3.92,8.33-6.72v35.25c-5.09,2.58-10.36,4.51-15.8,5.8
				c-2.72,0.65-5.53,1.13-8.44,1.45C935.73,505.52,932.67,505.69,929.44,505.69z"/>
			<path class="st0" d="M1042.91,505.69c-4.29,0-8.49-0.21-12.57-0.65c-4.08-0.43-8.17-1.15-12.24-2.15
				c-8.17-1.93-15.9-4.76-23.21-8.49v-32.78c4.44,3.16,8.62,5.8,12.57,7.95c3.93,2.15,7.94,3.98,12.03,5.48
				c7.95,2.94,15.69,4.41,23.21,4.41c4.09,0,7.63-0.45,10.64-1.35c3.01-0.89,5.59-2.23,7.74-4.03c4.3-3.5,6.45-8.45,6.45-14.83
				c0-4.87-1.44-9.09-4.3-12.68c-1.5-1.86-3.32-3.49-5.42-4.88c-2.12-1.4-4.46-2.6-7.04-3.6l-15.58-5.91
				c-8.24-3.15-15.01-6.32-20.31-9.51c-5.3-3.18-9.35-6.43-12.15-9.72c-5.65-6.59-8.49-15.58-8.49-26.97
				c0-14.62,4.65-26.04,13.97-34.28c9.39-8.31,22.13-12.47,38.25-12.47c3.87,0,7.71,0.21,11.5,0.65c3.8,0.43,7.38,1.03,10.75,1.82
				c3.36,0.79,6.93,1.81,10.69,3.06c3.76,1.26,7.5,2.74,11.23,4.46v30.95c-6.74-4.8-13.65-8.45-20.74-10.96
				c-7.09-2.5-14.07-3.76-20.95-3.76c-7.67,0-13.51,1.54-17.52,4.62c-4.08,3.15-6.12,7.52-6.12,13.11c0,4.51,1.5,8.21,4.51,11.07
				c1.43,1.44,3.56,2.9,6.39,4.41c2.83,1.5,6.89,3.26,12.19,5.26l13.65,5.16c12.97,4.87,22.46,11.1,28.48,18.69
				c6.09,7.81,9.13,17.87,9.13,30.19c0,15.83-4.8,27.72-14.4,35.67C1075.58,501.67,1061.46,505.69,1042.91,505.69z"/>
		</g>
		<g>
			<g>
				<path class="st1" d="M597.65,534.22h34.44c17.46,0,30.07,3.12,37.84,9.36c7.65,6.23,11.48,16.35,11.48,30.35
					c0,14.06-3.83,24.18-11.48,30.36c-7.77,6.23-20.38,9.35-37.84,9.35h-9.35v47.53h-25.09V534.22z M633.03,592.55
					c8.27,0,14.06-1.39,17.35-4.17c3.29-2.78,4.94-7.59,4.94-14.46c0-6.86-1.65-11.67-4.94-14.45c-3.29-2.78-9.07-4.17-17.35-4.17
					h-10.28v37.24H633.03z"/>
				<path class="st1" d="M707.51,534.22h25.08v104.84h53.66v22.11h-78.74V534.22z"/>
				<path class="st1" d="M830.29,534.22h30.7l34.27,126.95h-25.09l-7.82-31.38h-33.58l-7.65,31.38h-25.09L830.29,534.22z
					 M857.5,609.13l-11.9-51.95l-11.82,51.95H857.5z"/>
				<path class="st1" d="M908.18,534.22h26.95l35.38,92.26v-92.26h22.1v126.95h-26.78l-35.54-92.25v92.25h-22.1V534.22z"/>
				<path class="st1" d="M1042.78,556.16h-32.23v-21.94h89.54v21.94h-32.23v105.01h-25.08V556.16z"/>
			</g>
		</g>
	</g>
	<path class="st0" d="M527.03,394.27c-17.71-37.81-42.66-72.01-71.77-101.85c-26.14-26.64-55.99-49.67-88.39-68.16
		c-35.98,20.56-68.8,46.65-96.86,77.09c-35.84,38.96-64.86,85.14-79.65,136.23c-8.88,30.99-12.13,64.04-6.09,95.9
		c6.18,33.42,22.98,64.82,47.47,88.39c30.08,29.34,70.77,46.78,112.38,50.99c-0.04-7.42-0.04-17.65-0.04-25.06l-0.16-0.01v-62.5
		l-78.7-53.28l-6.67,9.85L332,591.6v55.05l-0.16-0.01c-23.3-4.26-45.77-13.37-65.14-27.05c-26.37-18.31-46.42-45.68-55.3-76.63
		c-8.97-30.3-7.19-62.85,0.64-93.2c11.08-42.34,33.37-81.11,60.79-114.94c26.55-32.41,58.41-60.43,94.03-82.44
		c43.3,26.82,81.25,62.44,110.5,104.23c22.52,32.36,40.1,68.76,47.56,107.66c4.44,23.9,4.99,48.89-0.96,72.6
		c-4.99,20.69-14.88,40.19-28.47,56.58c-23.48,28.24-57.63,46.69-93.57,53.19l-0.32,0.06v-25.23L480.08,547l-8.19-8.64l-82.19,77.98
		v32.37l-0.04,0.01c0,7.05,0,17.14-0.04,24.14c43.16-4.35,85.37-22.98,115.72-54.29c27.15-27.6,43.76-65.05,46.6-103.59
		C555.23,473.37,544.57,431.76,527.03,394.27z"/>
	<path class="st1" d="M446.75,483.34l45.58-0.1l-0.03-11.9l-33.15,0.07l24.44-23.51l-8.25-8.57l-66.88,64.33l0.4-30.35l-11.9-0.16
		l-0.56,42.11l-23.59,22.69V459.9l94.69-91.06l-8.25-8.57l-31.62,30.41l0.74-56.53l-11.9-0.16l-0.9,68.28l-42.75,41.12V297.76h-11.9
		v117.53l-40.58-33.89l-17.02-48.31l-11.23,3.95l15.5,44l-50.81,15.51l3.48,11.38l53.67-16.39l47,39.24v24.03l-0.1,0.1l0.1,0.1
		v53.71l-97.17-81.14l-7.63,9.14l38.85,32.44l-50.79,13.52l3.06,11.5l58.91-15.68l54.76,45.73v211.89
		c-8.41,2.56-14.57,10.28-14.57,19.53c0,11.32,9.18,20.5,20.5,20.5c11.32,0,20.5-9.18,20.5-20.5c0-9.23-6.14-16.95-14.54-19.52
		V554.46L446.75,483.34z"/>
</g>
</svg>
